<?xml version="1.0" encoding="iso-8859-1"?>
<!-- Generator: Adobe Illustrator 15.1.0, SVG Export Plug-In . SVG Version: 6.00 Build 0)  -->
<!DOCTYPE svg PUBLIC "-//W3C//DTD SVG 1.1//EN" "http://www.w3.org/Graphics/SVG/1.1/DTD/svg11.dtd">
<svg version="1.1" id="Layer_1" xmlns="http://www.w3.org/2000/svg" xmlns:xlink="http://www.w3.org/1999/xlink" x="0px" y="0px"
	 width="1661.917px" height="663.033px" viewBox="0 0 1661.917 663.033" style="enable-background:new 0 0 1661.917 663.033;"
	 xml:space="preserve">
<g>
	<path d="M22.999,55.983H176.83c102.553,0,146.416,53.13,146.416,206.343c0,160.01-20.386,234.763-156.919,234.763H22.999V55.983z
		 M126.789,420.482h27.799c47.57,0,64.869-19.151,64.869-151.359c0-107.496-8.65-136.533-63.632-136.533h-29.036V420.482z"/>
	<path d="M452.364,346.347v20.388c0,51.895,7.413,77.225,36.45,77.225c26.566,0,33.979-19.151,36.449-61.163h92.669
		c-1.853,83.403-46.333,122.941-129.736,122.941c-126.03,0-135.916-88.962-135.916-187.809c0-93.905,27.183-163.717,135.916-163.717
		c123.558,0,132.825,78.461,132.825,192.135H452.364z M524.647,288.274c0-46.953-6.178-72.282-33.979-72.282
		c-32.742,0-38.304,27.183-38.304,72.282H524.647z"/>
	<path d="M729.566,390.829c0.619,14.827,1.854,27.801,6.797,37.686c5.559,9.267,14.209,15.445,30.89,15.445
		c24.093,0,35.831-14.827,35.831-33.979c0-15.445-6.796-30.272-38.304-40.774c-82.167-27.801-121.706-43.245-121.706-114.292
		c0-66.721,46.335-100.701,127.267-100.701c93.286,0,121.087,46.336,121.087,93.906v11.119h-88.963v-6.178
		c0-29.035-11.119-37.067-32.742-37.067c-26.566,0-33.979,12.973-33.979,30.89c0,58.69,160.009,19.769,160.009,149.505
		c0,67.34-44.482,109.35-127.884,109.35c-89.58,0-127.265-33.36-127.265-100.082v-14.827H729.566z"/>
	<path d="M929.117,51.041h100.083v76.607H929.117V51.041z M929.117,162.862h100.083v334.227H929.117V162.862z"/>
	<path d="M1244.438,162.862h92.671v322.489c0,75.989-33.36,125.41-139.006,125.41c-96.992,0-125.412-42.624-125.412-92.667h92.67
		c1.854,9.268,5.56,16.063,10.504,20.389c6.793,4.323,14.827,6.794,24.712,6.794c32.742,0,40.154-21.623,40.154-85.256v-20.386
		h-1.234c-14.211,38.92-44.482,49.424-79.077,49.424c-71.664,0-93.906-71.666-93.906-163.717c0-79.078,11.121-171.13,97.613-171.13
		c45.099,0,67.337,23.477,79.078,53.749h1.233V162.862z M1203.048,416.158c27.183,0,37.684-19.77,37.684-95.14
		c0-61.781-7.412-90.199-36.45-90.199c-32.742,0-37.684,38.304-37.684,93.289C1166.598,393.917,1175.865,416.158,1203.048,416.158z"
		/>
	<path d="M1380.978,162.862h96.375v39.539h1.237c14.207-29.655,43.246-48.189,80.311-48.189c56.84,0,87.111,28.42,87.111,92.671
		v250.207h-100.083V269.123c0-24.094-9.886-38.304-29.038-38.304c-19.151,0-35.831,14.827-35.831,47.571v218.699h-100.082V162.862z"
		/>
</g>
</svg>
